<?xml version="1.0" encoding="UTF-8" standalone="no"?>
<!DOCTYPE svg PUBLIC "-//W3C//DTD SVG 1.1//EN" "http://www.w3.org/Graphics/SVG/1.1/DTD/svg11.dtd">
<svg width="100%" height="100%" viewBox="0 0 4500 4500" version="1.1" xmlns="http://www.w3.org/2000/svg" xmlns:xlink="http://www.w3.org/1999/xlink" xml:space="preserve" xmlns:serif="http://www.serif.com/" style="fill-rule:evenodd;clip-rule:evenodd;stroke-linejoin:round;stroke-miterlimit:2;">
    <g transform="matrix(4.16667,0,0,4.16667,0,0)">
        <g transform="matrix(2.46837,0,0,2.46837,-416.553,-65.9573)">
            <g transform="matrix(288,0,0,288,186.644,230.625)">
                <path d="M0.691,-0.708L0.691,-0.688C0.676,-0.681 0.66,-0.668 0.643,-0.649C0.626,-0.629 0.61,-0.599 0.596,-0.559L0.393,0.001C0.386,0 0.379,-0 0.372,-0.001C0.364,-0.001 0.356,-0.001 0.349,-0.001C0.342,-0.001 0.334,-0.001 0.327,-0.001C0.319,-0 0.312,0 0.305,0.001L0.047,-0.624C0.038,-0.648 0.028,-0.665 0.017,-0.674C0.006,-0.683 -0.005,-0.687 -0.014,-0.688L-0.014,-0.708C0.008,-0.707 0.034,-0.707 0.064,-0.706C0.093,-0.705 0.123,-0.705 0.153,-0.705C0.186,-0.705 0.216,-0.705 0.245,-0.706C0.273,-0.707 0.296,-0.707 0.313,-0.708L0.313,-0.688C0.281,-0.687 0.26,-0.681 0.249,-0.672C0.238,-0.662 0.24,-0.639 0.255,-0.604L0.436,-0.151L0.414,-0.123L0.54,-0.469C0.559,-0.523 0.569,-0.566 0.57,-0.598C0.571,-0.629 0.564,-0.652 0.549,-0.666C0.534,-0.68 0.514,-0.687 0.487,-0.688L0.487,-0.708C0.511,-0.707 0.533,-0.707 0.553,-0.706C0.572,-0.705 0.593,-0.705 0.615,-0.705C0.629,-0.705 0.643,-0.705 0.656,-0.706C0.669,-0.707 0.681,-0.707 0.691,-0.708Z" style="fill:rgb(17,17,17);fill-rule:nonzero;"/>
            </g>
            <g transform="matrix(288,0,0,288,382.484,230.625)">
                <path d="M0.031,-0.708C0.049,-0.707 0.073,-0.707 0.103,-0.706C0.133,-0.705 0.163,-0.705 0.193,-0.705C0.226,-0.705 0.257,-0.705 0.288,-0.706C0.318,-0.707 0.339,-0.707 0.352,-0.707C0.449,-0.707 0.522,-0.692 0.57,-0.663C0.617,-0.634 0.641,-0.59 0.641,-0.533C0.641,-0.509 0.636,-0.486 0.627,-0.463C0.617,-0.44 0.6,-0.418 0.578,-0.399C0.555,-0.38 0.523,-0.364 0.483,-0.353C0.442,-0.342 0.391,-0.336 0.33,-0.336L0.234,-0.336L0.234,-0.356L0.32,-0.356C0.357,-0.356 0.385,-0.364 0.404,-0.379C0.423,-0.394 0.436,-0.413 0.443,-0.439C0.45,-0.464 0.453,-0.491 0.453,-0.522C0.453,-0.575 0.445,-0.615 0.428,-0.645C0.411,-0.674 0.383,-0.688 0.343,-0.688C0.318,-0.688 0.303,-0.682 0.296,-0.671C0.289,-0.66 0.285,-0.637 0.285,-0.602L0.285,-0.106C0.285,-0.082 0.287,-0.064 0.291,-0.052C0.294,-0.04 0.301,-0.032 0.312,-0.028C0.322,-0.024 0.337,-0.021 0.358,-0.02L0.358,-0C0.339,-0.001 0.316,-0.002 0.287,-0.003C0.258,-0.003 0.228,-0.003 0.199,-0.003C0.165,-0.003 0.133,-0.003 0.103,-0.003C0.073,-0.002 0.049,-0.001 0.031,-0L0.031,-0.02C0.052,-0.021 0.067,-0.024 0.078,-0.028C0.088,-0.032 0.095,-0.04 0.099,-0.052C0.102,-0.064 0.104,-0.082 0.104,-0.106L0.104,-0.602C0.104,-0.627 0.102,-0.645 0.099,-0.657C0.095,-0.668 0.088,-0.676 0.078,-0.681C0.067,-0.685 0.052,-0.687 0.031,-0.688L0.031,-0.708ZM0.23,-0.353C0.256,-0.352 0.28,-0.351 0.301,-0.349C0.322,-0.347 0.341,-0.345 0.359,-0.344C0.376,-0.342 0.39,-0.341 0.403,-0.34C0.469,-0.336 0.518,-0.324 0.551,-0.303C0.583,-0.282 0.603,-0.25 0.612,-0.209L0.633,-0.105C0.639,-0.08 0.645,-0.062 0.652,-0.052C0.659,-0.041 0.668,-0.036 0.68,-0.037C0.687,-0.037 0.694,-0.039 0.699,-0.042C0.704,-0.045 0.71,-0.049 0.715,-0.055L0.729,-0.042C0.71,-0.021 0.689,-0.007 0.666,0.002C0.643,0.01 0.617,0.014 0.587,0.014C0.548,0.014 0.516,0.006 0.491,-0.009C0.466,-0.024 0.45,-0.053 0.443,-0.094L0.426,-0.194C0.422,-0.221 0.417,-0.246 0.411,-0.267C0.404,-0.288 0.396,-0.305 0.385,-0.318C0.374,-0.33 0.359,-0.336 0.34,-0.336L0.232,-0.336L0.23,-0.353Z" style="fill:rgb(17,17,17);fill-rule:nonzero;"/>
            </g>
            <g transform="matrix(288,0,0,288,186.644,460.225)">
                <path d="M0.414,-0.722C0.46,-0.722 0.498,-0.716 0.527,-0.703C0.556,-0.69 0.583,-0.675 0.606,-0.657C0.613,-0.651 0.62,-0.648 0.626,-0.648C0.639,-0.648 0.647,-0.668 0.651,-0.708L0.674,-0.708C0.673,-0.682 0.672,-0.65 0.671,-0.612C0.67,-0.574 0.67,-0.524 0.67,-0.462L0.647,-0.462C0.642,-0.506 0.635,-0.544 0.624,-0.575C0.613,-0.606 0.593,-0.632 0.563,-0.654C0.548,-0.667 0.53,-0.677 0.509,-0.684C0.488,-0.691 0.467,-0.694 0.446,-0.694C0.409,-0.694 0.377,-0.684 0.352,-0.664C0.326,-0.643 0.305,-0.616 0.289,-0.584C0.273,-0.551 0.262,-0.514 0.255,-0.474C0.247,-0.433 0.244,-0.393 0.244,-0.352C0.244,-0.232 0.26,-0.144 0.291,-0.089C0.322,-0.034 0.365,-0.006 0.42,-0.006C0.433,-0.006 0.445,-0.008 0.455,-0.011C0.465,-0.014 0.473,-0.017 0.48,-0.022C0.489,-0.028 0.495,-0.035 0.498,-0.043C0.501,-0.051 0.503,-0.061 0.503,-0.073L0.503,-0.172C0.503,-0.203 0.5,-0.227 0.495,-0.243C0.49,-0.258 0.48,-0.269 0.466,-0.275C0.451,-0.28 0.43,-0.283 0.402,-0.284L0.402,-0.304C0.417,-0.303 0.434,-0.303 0.455,-0.303C0.476,-0.302 0.497,-0.302 0.52,-0.302C0.543,-0.301 0.564,-0.301 0.583,-0.301C0.613,-0.301 0.641,-0.301 0.666,-0.302C0.691,-0.303 0.711,-0.303 0.727,-0.304L0.727,-0.284C0.709,-0.283 0.697,-0.277 0.692,-0.268C0.687,-0.259 0.684,-0.235 0.684,-0.198L0.684,-0L0.664,-0C0.663,-0.011 0.661,-0.024 0.656,-0.037C0.651,-0.05 0.644,-0.057 0.633,-0.057C0.628,-0.057 0.622,-0.056 0.613,-0.053C0.604,-0.05 0.591,-0.044 0.572,-0.035C0.547,-0.022 0.521,-0.01 0.493,-0.001C0.464,0.009 0.435,0.014 0.406,0.014C0.285,0.014 0.194,-0.018 0.133,-0.082C0.071,-0.145 0.04,-0.234 0.04,-0.347C0.04,-0.422 0.056,-0.488 0.088,-0.544C0.12,-0.6 0.164,-0.644 0.221,-0.675C0.277,-0.706 0.341,-0.722 0.414,-0.722Z" style="fill:rgb(17,17,17);fill-rule:nonzero;"/>
            </g>
            <g transform="matrix(288,0,0,288,401.204,460.225)">
                <path d="M0.578,-0.708C0.575,-0.677 0.574,-0.646 0.573,-0.617C0.572,-0.588 0.571,-0.565 0.571,-0.55C0.571,-0.537 0.571,-0.524 0.572,-0.512C0.573,-0.499 0.573,-0.489 0.574,-0.48L0.551,-0.48C0.544,-0.532 0.532,-0.573 0.516,-0.603C0.499,-0.633 0.479,-0.654 0.456,-0.667C0.432,-0.679 0.406,-0.685 0.377,-0.685L0.35,-0.685C0.331,-0.685 0.317,-0.684 0.308,-0.681C0.299,-0.678 0.293,-0.671 0.29,-0.662C0.287,-0.653 0.285,-0.638 0.285,-0.618L0.285,-0.09C0.285,-0.071 0.287,-0.056 0.29,-0.047C0.293,-0.037 0.299,-0.031 0.308,-0.028C0.317,-0.024 0.331,-0.023 0.35,-0.023L0.391,-0.023C0.417,-0.023 0.442,-0.03 0.466,-0.044C0.489,-0.057 0.51,-0.081 0.529,-0.114C0.548,-0.147 0.562,-0.191 0.571,-0.248L0.594,-0.248C0.592,-0.225 0.591,-0.196 0.591,-0.16C0.591,-0.144 0.591,-0.121 0.592,-0.092C0.593,-0.063 0.595,-0.032 0.598,-0C0.564,-0.001 0.526,-0.002 0.483,-0.003C0.44,-0.003 0.402,-0.003 0.369,-0.003L0.276,-0.003C0.237,-0.003 0.195,-0.003 0.152,-0.003C0.109,-0.002 0.068,-0.001 0.031,-0L0.031,-0.02C0.052,-0.021 0.067,-0.024 0.078,-0.028C0.088,-0.032 0.095,-0.04 0.099,-0.052C0.102,-0.064 0.104,-0.082 0.104,-0.106L0.104,-0.602C0.104,-0.627 0.102,-0.645 0.099,-0.657C0.095,-0.668 0.088,-0.676 0.078,-0.681C0.067,-0.685 0.052,-0.687 0.031,-0.688L0.031,-0.708C0.068,-0.707 0.109,-0.707 0.152,-0.706C0.195,-0.705 0.237,-0.705 0.276,-0.705L0.369,-0.705C0.4,-0.705 0.435,-0.705 0.474,-0.706C0.513,-0.706 0.547,-0.707 0.578,-0.708ZM0.427,-0.366L0.427,-0.346L0.255,-0.346L0.255,-0.366L0.427,-0.366ZM0.456,-0.498C0.453,-0.46 0.452,-0.431 0.453,-0.411C0.453,-0.391 0.453,-0.373 0.453,-0.356C0.453,-0.339 0.453,-0.321 0.454,-0.301C0.455,-0.281 0.456,-0.252 0.459,-0.214L0.436,-0.214C0.433,-0.238 0.426,-0.26 0.415,-0.28C0.404,-0.3 0.39,-0.316 0.372,-0.328C0.354,-0.34 0.332,-0.346 0.306,-0.346L0.306,-0.366C0.332,-0.366 0.354,-0.373 0.371,-0.388C0.388,-0.402 0.402,-0.419 0.413,-0.44C0.423,-0.46 0.43,-0.479 0.433,-0.498L0.456,-0.498Z" style="fill:rgb(17,17,17);fill-rule:nonzero;"/>
            </g>
        </g>
    </g>
</svg>
